# xmcd
#
# Track frame offsets:
#   150
#   14209
#   30211
#   42899
#   57051
#   71608
#   85907
#   100699
#   117191
#   133311
#   146582
#   160767
#   174576
#   188763
#   202239
#   217956
#   233381
#   247923
#   261049
#   274699
#   291081
#   308692
#   319158
#
# Disc length: 4400 seconds
#
# Revision: 0
# Processed by: cddbd v1.5.1PL0 Copyright (c) Steve Scherf et al.
# Submitted via: uFREEDB ActiveX Control 1.5
#
DISCID=41112e17
DTITLE=Balança Nenem  - Ao Vivo
DYEAR=2004
DGENRE=forró
TTITLE0=Escapadinha no forró
TTITLE1=Coração Sangrando
TTITLE2=Amor de Rapariga
TTITLE3=Balança, Balança
TTITLE4=Solte o Som DJ
TTITLE5=Vou Calar a Sua Boca
TTITLE6=Sereia do Mar
TTITLE7=Se Vira nos Trinta
TTITLE8=Frente a Frente
TTITLE9=Vem Meu Amor
TTITLE10=Volta Pra Mim
TTITLE11=Hoje Faz Um Mes
TTITLE12=Pout Pourri
TTITLE13=Pout Pourri
TTITLE14=Virando os Zoinho
TTITLE15=Mulher Cupim
TTITLE16=Locadora de Mulher
TTITLE17=Morar no Cabaré
TTITLE18=Amor Bandido
TTITLE19=Evidencias de Voce
TTITLE20=Canto e Declamo
TTITLE21=Mulher Falada
TTITLE22=Descansa Gogó
EXTD=
EXTT0=
EXTT1=
EXTT2=
EXTT3=
EXTT4=
EXTT5=
EXTT6=
EXTT7=
EXTT8=
EXTT9=
EXTT10=
EXTT11=
EXTT12=
EXTT13=
EXTT14=
EXTT15=
EXTT16=
EXTT17=
EXTT18=
EXTT19=
EXTT20=
EXTT21=
EXTT22=
PLAYORDER=
